<svg width="32" height="32" viewBox="0 0 32 32" fill="none" xmlns="http://www.w3.org/2000/svg">
<path d="M5.72973 26.1991L5.71678 26.2834L10.8086 22.7549L10.8679 22.7747C10.8679 22.7747 10.8679 22.7747 10.8679 22.7747C10.9465 22.5388 11.1157 22.3438 11.3381 22.2326C11.5605 22.1214 11.8179 22.1031 12.0538 22.1817C12.2897 22.2603 12.4847 22.4295 12.5959 22.6519C12.7071 22.8742 12.7254 23.1317 12.6468 23.3676C11.9723 25.3906 10.3649 26.8805 7.98801 27.6728C6.92122 28.0255 5.80861 28.2204 4.68545 28.2512C4.43711 28.251 4.199 28.1523 4.02338 27.9766C3.84777 27.801 3.74902 27.5629 3.74878 27.3146C3.77965 26.1914 3.97453 25.0788 4.32725 24.012C5.1196 21.6351 6.60939 20.0276 8.63244 19.3533L8.63248 19.3532C8.7493 19.3142 8.87266 19.2986 8.99553 19.3073C9.11839 19.3159 9.23834 19.3487 9.34853 19.4038C9.45871 19.4588 9.55697 19.535 9.63769 19.628C9.71841 19.7211 9.78001 19.8291 9.81896 19.9459C9.85792 20.0628 9.87347 20.1862 9.86472 20.309C9.85598 20.4319 9.82311 20.5518 9.768 20.662C9.71289 20.7721 9.63661 20.8703 9.54353 20.951C9.45044 21.0317 9.34238 21.0932 9.22551 21.1321L9.22548 21.1321C7.97783 21.5479 7.16244 22.4328 6.63035 23.4029C6.09865 24.3723 5.84799 25.4298 5.72973 26.1991Z" fill="white" stroke="white" stroke-width="0.125"/>
<path d="M28.4514 5.22757C28.3899 4.80408 28.1932 4.4118 27.8906 4.10922C27.588 3.80664 27.1957 3.60995 26.7722 3.54849C25.3615 3.33798 21.6946 3.23434 18.1211 6.80765L16.9998 7.92898H9.34302C9.08027 7.92829 8.81998 7.9797 8.57722 8.08024C8.33446 8.18079 8.11404 8.32846 7.92872 8.51473L3.88599 12.5575C3.63004 12.8135 3.44836 13.1342 3.36033 13.4853C3.2723 13.8364 3.28122 14.2048 3.38613 14.5513C3.49104 14.8978 3.68802 15.2092 3.95605 15.4525C4.22408 15.6958 4.55312 15.8618 4.90809 15.9328L9.84995 16.9212L15.0787 22.1499L16.067 27.0918C16.1379 27.4469 16.3039 27.776 16.5472 28.0441C16.7905 28.3122 17.102 28.5093 17.4486 28.6142C17.7951 28.7191 18.1636 28.728 18.5148 28.6398C18.8659 28.5517 19.1866 28.3699 19.4425 28.1138L23.4852 24.071C23.6715 23.8857 23.8192 23.6653 23.9197 23.4226C24.0203 23.1799 24.0716 22.9196 24.0709 22.6569V15L25.1923 13.8787C28.7658 10.3052 28.662 6.63833 28.4514 5.22757ZM9.34302 9.92898H14.9998L10.0143 14.9145L5.3003 13.9717L9.34302 9.92898ZM22.0709 22.6569L18.0282 26.6996L17.0854 21.9856L22.0709 17.0001L22.0709 22.6569Z" fill="white"/>
</svg>
