<svg width="32" height="32" viewBox="0 0 32 32" fill="none" xmlns="http://www.w3.org/2000/svg">
<path d="M15.3991 29.7943L15.3987 29.7942C13.5007 29.1654 4.06262 25.4711 4.06262 14.333V7.00004C4.0633 6.48638 4.26765 5.99396 4.63086 5.63074C4.99409 5.26752 5.48653 5.06317 6.0002 5.0625L26.0001 5.0625C26.5137 5.06318 27.0062 5.26753 27.3694 5.63074C27.7326 5.99396 27.937 6.48641 27.9376 7.00008V14.333C27.9376 25.472 18.4985 29.1654 16.6016 29.7942L16.6011 29.7943C16.2114 29.9266 15.7889 29.9266 15.3991 29.7943ZM22.3322 13.6611C22.3885 13.5904 22.4357 13.5126 22.4724 13.4296C22.529 13.302 22.5598 13.1644 22.5631 13.0248C22.5665 12.8852 22.5423 12.7463 22.4919 12.6161C22.4415 12.4859 22.366 12.3668 22.2696 12.2658C22.1732 12.1648 22.0579 12.0837 21.9302 12.0273C21.8024 11.9709 21.6648 11.9402 21.5252 11.937C21.3856 11.9338 21.2468 11.9581 21.1166 12.0086C20.9864 12.0591 20.8674 12.1347 20.7665 12.2312L14.1661 18.5308L11.2337 15.7312C11.2337 15.7312 11.2337 15.7312 11.2337 15.7312C11.1328 15.6347 11.0138 15.5591 10.8836 15.5086C10.7535 15.4581 10.6146 15.4338 10.475 15.437C10.3354 15.4402 10.1978 15.4709 10.0701 15.5273C9.94236 15.5837 9.82701 15.6648 9.73062 15.7658C9.63423 15.8668 9.55869 15.9859 9.50833 16.1161C9.45797 16.2463 9.43377 16.3852 9.43711 16.5248C9.44045 16.6644 9.47127 16.802 9.5278 16.9296C9.58433 17.0573 9.66548 17.1726 9.76659 17.2689L13.4325 20.7688L13.4326 20.7689C13.6303 20.9574 13.893 21.0625 14.1661 21.0625C14.4393 21.0625 14.702 20.9574 14.8997 20.7689L14.8997 20.7688L22.2337 13.7688L22.3466 13.6611H22.3322Z" fill="white" stroke="white" stroke-width="0.125"/>
</svg>
